<svg width="159" height="70" viewBox="0 0 159 70" fill="none" xmlns="http://www.w3.org/2000/svg">
<path d="M16.3487 58V11.4375H27.5675V30.125H45.9425V11.4375H57.1612V58H45.9425V39.2812H27.5675V58H16.3487ZM70.3662 58.625C68.1371 58.625 66.1475 58.25 64.3975 57.5C62.6683 56.7292 61.3142 55.5833 60.335 54.0625C59.3558 52.5417 58.8662 50.625 58.8662 48.3125C58.8662 46.375 59.1996 44.7396 59.8662 43.4062C60.5537 42.0729 61.4912 40.9896 62.6787 40.1562C63.8871 39.3229 65.2725 38.6875 66.835 38.25C68.3975 37.7917 70.0642 37.5 71.835 37.375C73.8142 37.1875 75.4079 37 76.6162 36.8125C77.8246 36.625 78.6996 36.3333 79.2412 35.9375C79.8037 35.5417 80.085 34.9896 80.085 34.2812V34.125C80.085 32.9792 79.6892 32.0833 78.8975 31.4375C78.1058 30.7917 77.0225 30.4688 75.6475 30.4688C74.1683 30.4688 72.9808 30.7917 72.085 31.4375C71.21 32.0833 70.6475 32.9583 70.3975 34.0625L60.1787 33.7188C60.4704 31.5938 61.2412 29.6979 62.4912 28.0312C63.7621 26.3438 65.5017 25.0208 67.71 24.0625C69.9392 23.1042 72.6267 22.625 75.7725 22.625C77.9808 22.625 80.0225 22.8854 81.8975 23.4062C83.7725 23.9271 85.4079 24.6875 86.8037 25.6875C88.1996 26.6875 89.2829 27.9062 90.0537 29.3438C90.8246 30.7812 91.21 32.4167 91.21 34.25V58H80.7412V53.0938H80.4912C79.8454 54.3021 79.0433 55.3125 78.085 56.125C77.1267 56.9375 76.0017 57.5625 74.71 58C73.4392 58.4167 71.9912 58.625 70.3662 58.625ZM73.7725 51.3125C74.96 51.3125 76.0329 51.0729 76.9912 50.5938C77.9704 50.0938 78.7412 49.4167 79.3037 48.5625C79.8871 47.7083 80.1787 46.7083 80.1787 45.5625V42.2812C79.8662 42.4479 79.4808 42.6042 79.0225 42.75C78.585 42.875 78.0954 43 77.5537 43.125C77.0121 43.25 76.46 43.3542 75.8975 43.4375C75.3558 43.5208 74.835 43.6042 74.335 43.6875C73.2725 43.8333 72.3662 44.0938 71.6162 44.4688C70.8871 44.8229 70.335 45.2708 69.96 45.8125C69.585 46.3542 69.3975 47.0104 69.3975 47.7812C69.3975 48.9271 69.8037 49.8021 70.6162 50.4062C71.4287 51.0104 72.4808 51.3125 73.7725 51.3125ZM105.696 11.4375V58H94.5713V11.4375H105.696ZM125.307 58.6562C121.641 58.6562 118.495 57.9062 115.87 56.4062C113.245 54.8854 111.224 52.7812 109.807 50.0938C108.412 47.3854 107.714 44.2396 107.714 40.6562C107.714 37.0521 108.412 33.9062 109.807 31.2188C111.224 28.5104 113.245 26.4062 115.87 24.9062C118.495 23.3854 121.641 22.625 125.307 22.625C128.974 22.625 132.12 23.3854 134.745 24.9062C137.391 26.4062 139.412 28.5104 140.807 31.2188C142.224 33.9062 142.932 37.0521 142.932 40.6562C142.932 44.2396 142.224 47.3854 140.807 50.0938C139.412 52.7812 137.391 54.8854 134.745 56.4062C132.12 57.9062 128.974 58.6562 125.307 58.6562ZM125.37 50.1875C126.724 50.1875 127.86 49.7917 128.776 49C129.693 48.2083 130.391 47.0938 130.87 45.6562C131.37 44.1979 131.62 42.5104 131.62 40.5938C131.62 38.6562 131.37 36.9792 130.87 35.5625C130.391 34.1458 129.693 33.0521 128.776 32.2812C127.86 31.4896 126.724 31.0938 125.37 31.0938C124.016 31.0938 122.86 31.4896 121.901 32.2812C120.943 33.0521 120.224 34.1458 119.745 35.5625C119.266 36.9792 119.026 38.6562 119.026 40.5938C119.026 42.5104 119.266 44.1979 119.745 45.6562C120.224 47.0938 120.943 48.2083 121.901 49C122.86 49.7917 124.016 50.1875 125.37 50.1875Z" fill="white"></path>
</svg>